<?xml version="1.0" encoding="UTF-8"?>
<!DOCTYPE svg PUBLIC "-//W3C//DTD SVG 1.1//EN" "http://www.w3.org/Graphics/SVG/1.1/DTD/svg11.dtd">
<!-- Creator: CorelDRAW -->
<svg xmlns="http://www.w3.org/2000/svg" xml:space="preserve" width="1.9em" height="1.9em" version="1.1" style="shape-rendering:geometricPrecision; text-rendering:geometricPrecision; image-rendering:optimizeQuality; fill-rule:evenodd; clip-rule:evenodd"
viewBox="0 0 2000 2000"
 xmlns:xlink="http://www.w3.org/1999/xlink">
 
 <g id="Layer_x0020_1">
  <metadata id="CorelCorpID_0Corel-Layer"/>
  <path class="fil0" d="M744 791c-35,0 -68,-11 -99,-32 -29,-20 -50,-45 -66,-64 -2,-3 -4,-6 -7,-10 -3,-4 -6,-8 -9,-12l-91 0c-34,0 -62,-28 -62,-62 0,-34 28,-62 62,-62l114 0c6,0 11,1 16,2 29,8 47,32 62,52l4 5c14,18 27,34 42,45 30,24 60,18 106,-23 12,-10 26,-15 41,-15l215 0c16,0 29,5 41,15 46,41 76,47 107,23 15,-11 27,-27 41,-45l4 -5c15,-20 33,-44 62,-51 5,-2 11,-3 16,-3l115 0c34,0 61,28 61,62 0,34 -27,62 -61,62l-92 0c-3,4 -6,8 -9,12 -3,4 -5,7 -7,10 -16,19 -37,44 -66,64 -71,49 -152,42 -234,-20l-172 0c-45,35 -91,52 -134,52zm-272 -195c-9,0 -15,7 -15,15 0,8 6,15 15,15l102 0c6,0 13,3 17,8 6,6 13,15 18,23 3,3 5,6 7,8 14,18 32,39 55,55 56,38 118,31 185,-23 4,-3 9,-5 15,-5l188 0c5,0 10,2 14,5 68,54 130,61 185,23 23,-16 42,-37 56,-55 1,-2 4,-5 6,-8 6,-8 13,-17 19,-23 4,-5 10,-8 17,-8l102 0c8,0 15,-7 15,-15 0,-8 -7,-15 -15,-15l-115 0c-1,0 -2,0 -3,1 -14,3 -26,20 -38,34l-3 5c-16,20 -31,39 -50,54 -72,57 -140,-2 -166,-24 -3,-3 -6,-4 -10,-4l-216 0c-4,0 -7,1 -10,4 -26,22 -94,81 -166,24 -19,-15 -35,-34 -50,-54l-4 -5c-11,-14 -24,-31 -37,-34 -1,-1 -2,-1 -4,-1l-114 0z"/>
  <path class="fil0" d="M1017 1387l-105 0c-13,0 -23,-10 -23,-23l0 -152c0,-13 10,-23 23,-23l105 0c13,0 24,10 24,23l0 152c0,13 -11,23 -24,23zm-82 -47l59 0 0 -105 -59 0 0 105z"/>
  <path class="fil0" d="M1057 1235l-185 0c-23,0 -42,-19 -42,-42l0 -32c0,-24 19,-43 42,-43l185 0c24,0 43,19 43,43l0 32c0,23 -19,42 -43,42zm-181 -46l177 0 0 -24 -177 0 0 24zm181 -24l0 0 0 0z"/>
  <path class="fil0" d="M1017 1165l-105 0c-6,0 -13,-3 -17,-7 -4,-5 -6,-11 -6,-18l19 -426c0,-12 11,-22 23,-22l68 0c12,0 22,10 23,22l19 426c0,7 -2,13 -6,18 -5,4 -11,7 -18,7zm-81 -47l57 0 -17 -379 -23 0 -17 379z"/>
  <path class="fil0" d="M965 662c-50,0 -91,-41 -91,-91 0,-50 41,-91 91,-91 50,0 90,41 90,91 0,50 -40,91 -90,91zm0 -135c-25,0 -44,20 -44,44 0,25 19,44 44,44 24,0 44,-20 44,-44 0,-24 -20,-44 -44,-44z"/>
  <path class="fil0" d="M1426 818c-13,0 -24,-10 -24,-23l0 -146c0,-13 11,-23 24,-23 13,0 23,10 23,23l0 146c0,13 -10,23 -23,23zm0 -222c-13,0 -24,-10 -24,-23l0 -40c0,-13 11,-24 24,-24 13,0 23,11 23,24l0 40c0,13 -10,23 -23,23z"/>
  <path class="fil0" d="M503 818c-12,0 -23,-10 -23,-23l0 -146c0,-13 11,-23 23,-23 13,0 24,10 24,23l0 146c0,13 -11,23 -24,23zm0 -222c-12,0 -23,-10 -23,-23l0 -40c0,-13 11,-24 23,-24 13,0 24,11 24,24l0 40c0,13 -11,23 -24,23z"/>
  <path class="fil0" d="M503 914c-39,0 -71,-32 -71,-71 0,-40 32,-72 71,-72 40,0 72,32 72,72 0,39 -32,71 -72,71zm0 -96c-13,0 -24,11 -24,25 0,13 11,24 24,24 14,0 25,-11 25,-24 0,-14 -11,-25 -25,-25z"/>
  <path class="fil0" d="M503 1174c-102,0 -186,-83 -186,-186 0,-13 11,-23 23,-23l327 0c12,0 23,10 23,23 0,103 -84,186 -187,186zm-137 -163c11,66 68,117 137,117 70,0 127,-51 138,-117l-275 0z"/>
  <path class="fil0" d="M340 1011c-6,0 -12,-2 -17,-7 -9,-10 -8,-25 2,-33l127 -114c10,-8 25,-8 33,2 9,10 8,24 -2,33l-127 114c-4,3 -10,5 -16,5z"/>
  <path class="fil0" d="M667 1011c-6,0 -12,-2 -16,-6l-127 -113c-10,-9 -11,-23 -2,-33 8,-10 23,-10 33,-2l127 114c9,8 10,23 2,32 -5,6 -11,8 -17,8z"/>
  <path class="fil0" d="M1426 914c-40,0 -71,-32 -71,-71 0,-40 31,-72 71,-72 39,0 71,32 71,72 0,39 -32,71 -71,71zm0 -96c-14,0 -25,11 -25,25 0,13 11,24 25,24 13,0 24,-11 24,-24 0,-14 -11,-25 -24,-25z"/>
  <path class="fil0" d="M1426 1174c-103,0 -187,-83 -187,-186 0,-13 11,-23 24,-23l326 0c13,0 23,10 23,23 0,103 -83,186 -186,186zm-138 -163c11,66 69,117 138,117 69,0 126,-51 138,-117l-276 0z"/>
  <path class="fil0" d="M1263 1011c-7,0 -13,-2 -18,-7 -8,-10 -7,-25 2,-33l128 -114c9,-8 24,-8 32,2 9,10 8,24 -1,33l-128 114c-4,3 -10,5 -15,5z"/>
  <path class="fil0" d="M1589 1011c-6,0 -11,-2 -16,-6l-127 -113c-10,-9 -10,-23 -2,-33 9,-10 23,-10 33,-2l127 114c10,8 11,23 2,32 -4,6 -11,8 -17,8z"/>
  <path class="fil0" d="M1225 1534l-521 0c-13,0 -23,-10 -23,-23l0 -74c0,-53 43,-97 97,-97l374 0c53,0 96,44 96,97l0 74c0,13 -10,23 -23,23zm-498 -47l475 0 0 -50c0,-28 -23,-50 -50,-50l-374 0c-28,0 -51,22 -51,50l0 50z"/>
  <path class="fil1" d="M965 1809c-451,0 -818,-367 -818,-818 0,-450 367,-817 818,-817 450,0 817,367 817,817 0,112 -22,219 -65,321 -4,9 -12,14 -22,14l-334 0c-13,38 -20,77 -20,118 0,74 23,145 65,206 4,5 6,12 4,18 -1,6 -5,12 -10,15 -130,82 -281,126 -435,126zm0 -1588c-425,0 -771,345 -771,770 0,425 346,771 771,771 137,0 272,-36 390,-106 -40,-63 -61,-136 -61,-212 0,-52 10,-102 29,-150 4,-8 12,-14 22,-14l335 0c37,-92 55,-189 55,-288 0,-426 -345,-771 -770,-771z"/>
  <path class="fil0" d="M1573 1826c-2,0 -5,-1 -7,-1 -163,-56 -272,-209 -272,-381 0,-52 10,-102 29,-150 4,-9 12,-14 22,-14l457 0c10,0 18,6 22,14 19,48 29,98 29,150 0,172 -109,325 -272,381 -2,0 -5,1 -8,1zm-212 -500c-13,38 -20,77 -20,118 0,149 93,282 232,334 140,-52 233,-185 233,-334 0,-41 -7,-80 -20,-118l-425 0z"/>
  <path class="fil0" d="M1502 1622c-2,0 -4,0 -5,-1 -6,-1 -12,-5 -15,-11l-17 -30c-6,-11 -3,-25 9,-32 11,-6 25,-2 31,9l6 10 139 -80c11,-7 26,-3 32,8 6,11 3,26 -9,32l-159 92c-3,2 -7,3 -12,3z"/>
 </g>
</svg>
