<?xml version="1.0" encoding="UTF-8"?>
<!DOCTYPE svg PUBLIC "-//W3C//DTD SVG 1.1//EN" "http://www.w3.org/Graphics/SVG/1.1/DTD/svg11.dtd">
<!-- Creator: CorelDRAW -->
<svg xmlns="http://www.w3.org/2000/svg" xml:space="preserve" width="1.70666in" height="1.70666in" version="1.1" style="shape-rendering:geometricPrecision; text-rendering:geometricPrecision; image-rendering:optimizeQuality; fill-rule:evenodd; clip-rule:evenodd"
viewBox="0 0 1706.66 1706.66"
 xmlns:xlink="http://www.w3.org/1999/xlink"
 xmlns:xodm="http://www.corel.com/coreldraw/odm/2003">
 <defs>
  <style type="text/css">
   <![CDATA[
    .fil0 {fill:black}
   ]]>
  </style>
 </defs>
 <g id="Layer_x0020_1">
  <metadata id="CorelCorpID_0Corel-Layer"/>
  <path class="fil0" d="M1579.69 1590.1c-10.94,0 -19.81,-8.89 -19.81,-19.81l-356.17 -0 0 -746.2 375.98 0c10.94,0 19.81,8.88 19.81,19.81l0 726.37c0,10.94 -8.87,19.83 -19.81,19.83zm-487.79 -480.86l-477.15 0c-10.93,0 -19.81,-8.89 -19.81,-19.81l0 -140.54c0,-10.93 8.88,-19.81 19.81,-19.81l477.15 0c10.93,0 19.81,8.89 19.81,19.81l0 140.53c0,10.93 -8.87,19.82 -19.81,19.82zm-457.33 -39.64l437.51 0 0 -100.89 -437.51 0 0 100.89zm-230.72 97.07l-174.48 0c-10.93,0 -19.81,-8.89 -19.81,-19.81l0 -205.38c0,-10.94 8.88,-19.81 19.81,-19.81l174.48 0c10.93,0 19.81,8.89 19.81,19.81l0 205.38c0,10.94 -8.86,19.81 -19.81,19.81zm-154.67 -39.62l134.87 0 0 -165.74 -134.87 0 0 165.74zm154.67 365.46l-174.48 0c-10.93,0 -19.81,-8.89 -19.81,-19.81l0 -205.38c0,-10.94 8.88,-19.81 19.81,-19.81l174.48 0c10.93,0 19.81,8.88 19.81,19.81l0 205.38c0,10.92 -8.86,19.81 -19.81,19.81zm-154.67 -39.64l134.87 0 0 -165.74 -134.87 0 0 165.74zm1228.12 -286.2l-174.49 0c-10.94,0 -19.81,-8.89 -19.81,-19.81l0 -205.38c0,-10.94 8.89,-19.81 19.81,-19.81l174.49 0c10.94,0 19.81,8.89 19.81,19.81l0 205.38c0,10.94 -8.87,19.81 -19.81,19.81zm-154.67 -39.62l134.85 0 0 -165.74 -134.85 0 0 165.74zm154.67 365.46l-174.49 0c-10.94,0 -19.81,-8.89 -19.81,-19.81l0 -205.38c0,-10.94 8.89,-19.81 19.81,-19.81l174.49 0c10.94,0 19.81,8.88 19.81,19.81l0 205.38c0,10.92 -8.87,19.81 -19.81,19.81zm-154.67 -39.64l134.85 0 0 -165.74 -134.85 0 0 165.74zm-158.55 117.41l-105.65 0 0 -375.87c0,-10.93 -8.87,-19.81 -19.81,-19.81l-370.59 0c-10.93,0 -19.81,8.88 -19.81,19.81l0 375.86 -105.65 0 0 -746.19 621.51 0 0 746.2zm-145.27 0l-145.67 -0 0 -356.05 145.67 0 0 356.06zm-185.3 -356.06l0 356.05 -145.67 -0 0 -356.05 145.67 0zm-330.56 356.05l-356.17 -0c0,26.08 -39.62,26.07 -39.62,0l0 -726.37c0,-10.93 8.87,-19.81 19.81,-19.81l375.98 0 0 746.19z"/>
  <path class="fil0" d="M1616.35 1706.66l-1526.04 0c-10.94,0 -19.81,-8.89 -19.81,-19.81l0 -116.57c0,-10.94 8.87,-19.81 19.81,-19.81l1526.04 0c10.94,0 19.81,8.89 19.81,19.81l0 116.57c0,10.93 -8.87,19.81 -19.81,19.81z"/>
  <path class="fil0" d="M1288.77 863.71c-10.93,0 -19.81,-8.88 -19.81,-19.81l-831.27 0.02c0,26.08 -39.62,26.08 -39.62,0l0 -189.38c0,-9.91 7.32,-18.3 17.14,-19.63l441.04 -59.3 435.22 59.3c9.82,1.33 17.14,9.73 17.14,19.63l0 189.37c-0.02,10.96 -8.9,19.81 -19.84,19.81z"/>
  <path class="fil0" d="M527.5 659.43c-10.94,0 -19.81,-8.87 -19.81,-19.81 0,-190.58 155.06,-345.62 345.63,-345.62 190.55,0 345.6,155.04 345.64,345.6 0.01,26.05 -539.06,19.83 -671.46,19.83z"/>
  <path class="fil0" d="M853.32 350.14c-20.05,0 -36.33,-16.27 -36.33,-36.32l0 -277.94c0,-47.84 72.65,-47.84 72.65,0l0 277.94c0,20.06 -16.27,36.32 -36.32,36.32z"/>
  <path class="fil0" d="M1127.7 184.81l-274.38 0c-10.94,0 -19.81,-8.87 -19.81,-19.81l0 -145.15c0,-10.93 8.88,-19.81 19.81,-19.81l274.38 0c10.94,0 19.81,8.88 19.81,19.81l0 145.15c0.01,10.94 -8.87,19.81 -19.81,19.81z"/>
 </g>
</svg>
