<?xml version="1.0" encoding="UTF-8"?>
<!DOCTYPE svg PUBLIC "-//W3C//DTD SVG 1.1//EN" "http://www.w3.org/Graphics/SVG/1.1/DTD/svg11.dtd">
<!-- Creator: CorelDRAW -->
<svg xmlns="http://www.w3.org/2000/svg" xml:space="preserve" width="512px" height="512px" version="1.1" style="shape-rendering:geometricPrecision; text-rendering:geometricPrecision; image-rendering:optimizeQuality; fill-rule:evenodd; clip-rule:evenodd"
viewBox="0 0 512 512"
 xmlns:xlink="http://www.w3.org/1999/xlink">
 <defs>
  <style type="text/css">
   <![CDATA[
    .fil0 {fill:black}
   ]]>
  </style>
 </defs>
 <g id="Layer_x0020_1">
  <metadata id="CorelCorpID_0Corel-Layer"/>
  <g id="_226343792">
   <g>
    <g id="_226344584">
     <path class="fil0" d="M123 456c-68,0 -123,-55 -123,-123 0,-26 8,-50 22,-71 14,-19 32,-33 53,-42l0 -30c0,-3 3,-7 7,-7l82 0c4,0 7,4 7,7l0 30c21,9 39,23 53,42 14,21 22,45 22,71 0,68 -55,123 -123,123zm-34 -259l0 27c0,3 -2,6 -5,7 -42,16 -70,57 -70,102 0,60 49,109 109,109 60,0 109,-49 109,-109 0,-45 -28,-86 -70,-102 -3,-1 -5,-4 -5,-7l0 -27 -68 0z"/>
    </g>
    <g id="_226345112">
     <path class="fil0" d="M123 420c-48,0 -87,-39 -87,-87 0,-48 39,-87 87,-87 48,0 87,39 87,87 0,48 -39,87 -87,87zm0 -160c-40,0 -73,33 -73,73 0,40 33,73 73,73 40,0 73,-33 73,-73 0,-40 -33,-73 -73,-73z"/>
    </g>
    <g id="_226344056">
     <path class="fil0" d="M145 223l-44 0c-4,0 -7,-3 -7,-7 0,-4 3,-7 7,-7l44 0c4,0 7,3 7,7 0,4 -3,7 -7,7z"/>
    </g>
    <g id="_226344968">
     <path class="fil0" d="M389 347c-22,0 -43,-6 -62,-17 -22,-13 -39,-32 -50,-55 -9,-21 -13,-44 -10,-67l-26 -14c-3,-2 -4,-6 -2,-10l41 -71c1,-2 2,-3 4,-3 2,-1 4,0 5,1l26 14c21,-16 47,-25 74,-25 21,0 43,6 61,17 29,16 49,43 58,75 8,31 4,65 -13,93 -21,38 -62,62 -106,62zm-135 -162l24 14c2,1 4,4 3,7 -7,44 14,89 53,112 17,9 36,15 55,15 39,0 75,-21 94,-55 15,-25 19,-55 11,-83 -7,-28 -25,-51 -51,-66 -16,-10 -35,-15 -54,-15 -25,0 -50,9 -69,25 -2,2 -6,2 -8,1l-23 -14 -35 59z"/>
    </g>
    <g id="_226346360">
     <path class="fil0" d="M389 310c-15,0 -30,-4 -44,-11 -20,-12 -34,-31 -40,-53 -6,-22 -3,-46 9,-66 15,-27 44,-44 75,-44 15,0 30,5 43,12 20,12 35,31 41,53 6,22 3,46 -9,66 -15,27 -44,43 -75,43zm0 -160c-26,0 -50,14 -63,37 -10,17 -13,37 -8,55 5,19 18,35 34,45 11,6 24,9 37,9 26,0 50,-14 63,-36 10,-17 12,-37 7,-55 -5,-19 -17,-35 -34,-45 -11,-6 -23,-10 -36,-10z"/>
    </g>
    <g id="_226346408">
     <path class="fil0" d="M276 191c-1,0 -2,0 -3,-1 -4,-2 -5,-6 -3,-9l23 -39c2,-3 6,-4 9,-3 4,2 5,7 3,10l-23 39c-1,2 -3,3 -6,3z"/>
    </g>
    <g id="_226345616">
     <path class="fil0" d="M116 197c-3,0 -6,-2 -6,-5 -2,-8 -4,-15 -4,-23l-4 0c-8,0 -15,-6 -15,-14l0 -22c0,-9 7,-15 15,-15l12 0c5,-10 12,-19 20,-25l-2 -4c-2,-3 -3,-7 -2,-11 1,-4 4,-7 7,-9l20 -11c3,-2 7,-2 11,-1 3,1 7,3 9,6l0 0 6 12c12,0 24,2 35,7l7 -7c6,-5 15,-5 21,0l15 16c6,6 6,15 0,21 0,0 0,0 0,0l-4 4c7,10 12,22 15,34 1,4 -1,8 -5,9 -4,1 -7,-1 -8,-5 -3,-10 -7,-20 -12,-28l-1 2c-3,2 -7,4 -11,4 -4,0 -7,-2 -10,-4l-16 -16c-5,-5 -5,-13 -2,-19 -5,-2 -11,-3 -17,-4 0,6 -3,11 -8,14l-19 11c-7,4 -16,2 -20,-5l-2 -4c-5,4 -8,9 -12,14 6,2 10,7 10,14l0 22c0,8 -6,14 -14,14 0,0 0,0 -1,0l-4 0c0,7 2,13 3,20 1,3 -1,7 -5,8 0,0 -1,0 -2,0zm-4 -42l12 0c1,0 1,0 1,0l0 -22c0,-1 0,-1 -1,-1l-5 0c0,0 -1,0 -1,0l-16 0c0,0 -1,0 -1,1l0 22c0,0 1,0 1,0l10 0c0,0 0,0 0,0zm112 -59l-5 5c0,0 0,1 0,1l16 16c0,0 1,0 1,0l7 -7c0,-1 0,-1 0,-1l9 -8c0,0 0,-1 0,-1l-16 -16c0,0 -1,0 -1,0l-11 11c0,0 0,0 0,0zm-75 -5l6 11c0,0 1,0 1,0l19 -11c1,-1 1,-1 1,-1l-3 -4c0,0 0,0 0,0l-9 -16c0,0 0,0 0,0 0,0 0,0 0,0 0,0 0,0 0,0l-20 11c0,0 0,0 0,1 0,0 0,0 0,0l5 9c0,0 0,0 0,0z"/>
    </g>
   </g>
  </g>
 </g>
</svg>
