<?xml version="1.0" encoding="UTF-8"?>
<!DOCTYPE svg PUBLIC "-//W3C//DTD SVG 1.1//EN" "http://www.w3.org/Graphics/SVG/1.1/DTD/svg11.dtd">
<!-- Creator: CorelDRAW -->
<svg xmlns="http://www.w3.org/2000/svg" xml:space="preserve" width="512px" height="512px" version="1.1" style="shape-rendering:geometricPrecision; text-rendering:geometricPrecision; image-rendering:optimizeQuality; fill-rule:evenodd; clip-rule:evenodd"
viewBox="0 0 512 512"
 xmlns:xlink="http://www.w3.org/1999/xlink">
 <defs>
  <style type="text/css">
   <![CDATA[
    .fil0 {fill:black}
   ]]>
  </style>
 </defs>
 <g id="Layer_x0020_1">
  <metadata id="CorelCorpID_0Corel-Layer"/>
  <g id="_302203096">
   <g>
    <g>
     <path class="fil0" d="M214 214c-18,0 -32,-11 -32,-24 0,-13 14,-23 32,-23 18,0 32,10 32,23 0,13 -14,24 -32,24zm0 -33c-11,0 -18,5 -18,9 0,4 7,10 18,10 11,0 18,-6 18,-10 0,-4 -7,-9 -18,-9z"/>
    </g>
    <g>
     <path class="fil0" d="M293 214c-18,0 -32,-11 -32,-24 0,-13 14,-23 32,-23 19,0 33,10 33,23 0,13 -15,24 -33,24zm0 -33c-11,0 -18,5 -18,9 0,4 7,10 18,10 11,0 19,-6 19,-10 0,-4 -8,-9 -19,-9z"/>
    </g>
   </g>
   <g>
    <path class="fil0" d="M243 380c-10,0 -20,-1 -30,-4 -16,-4 -41,-14 -66,-36l-1 -1c-3,-2 -3,-7 0,-10 2,-2 7,-3 10,0l0 0c27,24 98,72 181,-6 3,-3 7,-2 10,0 3,3 3,8 0,10 -23,22 -47,36 -72,43 -11,2 -21,4 -32,4z"/>
   </g>
   <g>
    <path class="fil0" d="M347 421l-309 0c-4,0 -7,-3 -7,-7 0,-4 3,-7 7,-7l309 0c4,0 7,3 7,7 0,4 -3,7 -7,7z"/>
   </g>
   <g>
    <path class="fil0" d="M141 232c-3,0 -5,-1 -6,-4 -2,-3 -1,-8 3,-9 2,-1 2,-1 39,-1 19,0 45,0 78,0 56,0 112,0 113,0 4,0 7,3 7,7 0,4 -3,7 -7,7 0,0 0,0 0,0 -86,0 -217,-1 -226,0 0,0 -1,0 -1,0zm3 -1c0,0 0,0 0,0 0,0 0,0 0,0zm0 0c0,0 0,0 0,0 0,0 0,0 0,0z"/>
   </g>
   <g>
    <path class="fil0" d="M141 163c-2,0 -5,-1 -6,-4 -11,-22 -16,-48 -12,-73 4,-27 18,-50 38,-64 0,0 0,0 0,0 19,-12 46,-21 72,-22 29,-1 52,7 65,22 24,4 44,15 58,34 18,25 25,63 17,101 -1,4 -4,7 -8,6 -4,-1 -6,-4 -6,-8 7,-35 2,-69 -15,-91 -12,-16 -29,-26 -51,-28 -2,0 -3,-1 -5,-3 -13,-18 -40,-19 -55,-19 -23,1 -48,9 -64,20 -38,26 -41,82 -22,119 2,3 1,8 -3,9 -1,1 -2,1 -3,1z"/>
   </g>
   <g>
    <path class="fil0" d="M369 138c0,0 0,0 0,0 -6,0 -10,0 -14,0 -18,0 -21,0 -26,-9 -1,-2 -3,-5 -9,-11 -4,-3 -7,-6 -11,-9 -11,-9 -21,-17 -25,-31 -18,20 -46,24 -47,24 0,0 -1,0 -1,0 -36,1 -53,14 -63,23l-1 0c0,0 0,1 0,1 -13,10 -20,10 -32,9 -3,0 -6,0 -9,0 -4,0 -7,-3 -7,-7 0,-4 3,-7 7,-7 4,0 7,0 10,0 10,1 13,1 23,-6l0 -1c11,-9 31,-25 71,-26 5,-1 41,-7 47,-38 1,-4 4,-6 8,-6 4,1 6,4 6,8 -4,25 6,33 22,46 4,3 8,6 12,10 0,0 0,0 0,0 7,7 10,12 11,14 1,1 1,1 1,1 2,1 7,1 14,1 3,0 8,0 13,0 4,0 7,3 7,7 0,4 -3,7 -7,7z"/>
   </g>
   <g>
    <path class="fil0" d="M252 332c-11,0 -22,-4 -37,-13 -18,-11 -43,-35 -61,-59 -16,-22 -34,-54 -28,-81 0,0 0,0 0,0 1,-2 2,-5 2,-8 2,-4 3,-8 4,-12 1,-4 3,-10 9,-10l225 0c7,0 9,7 11,14 1,5 3,12 4,18 7,28 -10,59 -26,79 -17,24 -41,46 -61,57 -16,9 -28,15 -42,15zm-112 -149c-9,37 49,104 83,124 0,0 0,0 0,0 26,17 38,12 64,-2 34,-19 90,-80 80,-121 0,-1 0,-1 0,-1 -1,-8 -4,-16 -5,-20l-217 0c-1,3 -2,8 -3,12 -1,3 -1,5 -2,8zm226 -20l0 0 0 0z"/>
   </g>
   <g>
    <path class="fil0" d="M395 352c-1,0 -1,0 -2,0 -13,-4 -27,-8 -39,-10 -13,-2 -34,-13 -29,-65 0,-3 4,-6 8,-6 4,0 6,4 6,8 -2,17 -2,46 17,49 0,0 0,0 0,0 13,2 27,6 41,10 4,1 6,5 5,9 -1,3 -4,5 -7,5z"/>
   </g>
   <g>
    <path class="fil0" d="M349 477l-311 0c-4,0 -7,-3 -7,-7l0 -52c0,-65 72,-81 120,-91 0,0 0,0 0,0 23,-4 16,-52 16,-53 0,-4 2,-7 6,-8 4,0 7,2 8,6 0,3 10,63 -28,69 -57,12 -108,27 -108,77l0 45 304 0c4,0 7,3 7,7 0,4 -3,7 -7,7z"/>
   </g>
   <g>
    <path class="fil0" d="M408 512c0,0 0,0 -1,0 -16,0 -32,-5 -44,-14 -26,-19 -34,-52 -22,-91 0,0 0,0 0,0 8,-23 17,-40 29,-53 12,-12 25,-18 38,-18 0,0 1,0 1,0 29,1 54,29 68,77 10,37 1,68 -25,86 -12,8 -28,13 -44,13zm-53 -101c-11,33 -5,60 16,75 21,16 52,16 74,1 20,-14 27,-39 18,-70 -12,-42 -32,-67 -54,-67 -22,0 -42,23 -54,61z"/>
   </g>
   <g>
    <path class="fil0" d="M395 352c-2,0 -5,-1 -6,-4l-28 -52c-1,-2 -1,-4 0,-7 1,-2 4,-3 6,-3l83 0c3,0 5,1 6,4 1,2 1,4 0,7l-29 52c-2,3 -6,4 -9,2 -4,-2 -5,-6 -3,-9l23 -42 -59 0 22 42c2,3 1,7 -3,9 -1,1 -2,1 -3,1z"/>
   </g>
   <g>
    <g>
     <path class="fil0" d="M408 464c-13,0 -23,-11 -23,-24 0,-4 3,-7 7,-7 4,0 7,3 7,7 0,5 4,10 9,10 5,0 10,-5 10,-10 0,-5 -5,-9 -10,-9 -13,0 -23,-10 -23,-24 0,-13 10,-23 23,-23 13,0 24,10 24,23 0,4 -3,7 -7,7 -4,0 -7,-3 -7,-7 0,-5 -5,-9 -10,-9 -5,0 -9,4 -9,9 0,6 4,10 9,10 13,0 24,10 24,23 0,13 -11,24 -24,24z"/>
    </g>
    <g>
     <path class="fil0" d="M408 474c-4,0 -7,-3 -7,-7l0 -10c0,-4 3,-7 7,-7 4,0 7,3 7,7l0 10c0,4 -3,7 -7,7z"/>
    </g>
    <g>
     <path class="fil0" d="M408 398c-4,0 -7,-3 -7,-7l0 -10c0,-4 3,-7 7,-7 4,0 7,3 7,7l0 10c0,4 -3,7 -7,7z"/>
    </g>
   </g>
  </g>
 </g>
</svg>
