<?xml version="1.0" encoding="UTF-8" standalone="no"?> <svg xmlns="http://www.w3.org/2000/svg" viewBox="0 0 512 512"><title>Family_care</title><g id="Family_care"><path d="M448.4,321.2l-39.73-9V295.68a78.71,78.71,0,0,0,45.47-56.22,26.61,26.61,0,0,0,15.49-45.16V133.23a68.92,68.92,0,0,0-68.84-68.84v.2a24.7,24.7,0,0,0-19.08-9.05h-.38a95.67,95.67,0,0,0-67.86,28.39,98.14,98.14,0,0,0-29.19,69.88v40.81a26.56,26.56,0,0,0-4,31.55,82.55,82.55,0,0,0-21.47-2.72,79.88,79.88,0,0,0-37.92,9.88v-9.9A69.38,69.38,0,0,0,172.23,157l-3,9.54a59.42,59.42,0,0,1,41.7,56.91v16.38a82.64,82.64,0,0,0-32,54.71A66.8,66.8,0,0,1,75.32,238.75V226a56.93,56.93,0,0,1,32.45-51.28l.56-.26a66.91,66.91,0,0,0,38.8-60.62v-8.55h-10v8.55a56.89,56.89,0,0,1-32.4,51.27l-.6.27A67,67,0,0,0,65.32,226v77.9A106.2,106.2,0,0,0,70,335.17a67,67,0,0,0-36,31.87,50.87,50.87,0,0,1,8.1-72.4,29.51,29.51,0,0,0,11.46-23.39V168.83a88.4,88.4,0,0,1,150.82-63A89.78,89.78,0,0,1,231.27,170v43.41h10V170a99.69,99.69,0,0,0-29.8-71.22,98.52,98.52,0,0,0-167.86,70.1V271.25A19.59,19.59,0,0,1,36,286.76a60.88,60.88,0,0,0-6.24,90.49,66.84,66.84,0,0,0-3.31,20.82v95.56H149.12v-10H36.45V398.07A57.16,57.16,0,0,1,81,342.3l42.94-9.74V313.39a77.21,77.21,0,0,0,37-.16v19.33l17.19,3.9v24a38.25,38.25,0,0,0,38.21,38.21h1.38v-10h-1.38a28.24,28.24,0,0,1-28.21-28.21V305.74c0-39.57,31.76-72,70.79-72.29a71.33,71.33,0,0,1,71.88,71.33v55.65a28.23,28.23,0,0,1-28.2,28.21v10a38.25,38.25,0,0,0,38.2-38.21V323.67l5.36-1.22V368a6.72,6.72,0,0,0,12,4.1l19.23-26.78L396.55,372l.1.14a6.71,6.71,0,0,0,12-4.1V322.45L446.19,331a64.13,64.13,0,0,1,50.22,62.88v89.79h-42.5V400.07h-10v83.56H363.56v10H506.41V393.84a74.48,74.48,0,0,0-58-72.64ZM87.82,293.07c.28.27.57.53.85.81v9.74a106.39,106.39,0,0,0,3.23,25.95l-12.28,2.78a96.25,96.25,0,0,1-4.3-28.46V276.67A77.77,77.77,0,0,0,87.82,293.07Zm26.12,31.51-12.29,2.78a96.29,96.29,0,0,1-3-23.74v-1.54a76,76,0,0,0,15.27,8.14Zm57,0V310a75.69,75.69,0,0,0,7.19-3.37v19.6ZM455.53,229c.12-1.77.2-3.54.2-5.33v-2.08a21.4,21.4,0,0,0,11.54-10.26,16.91,16.91,0,0,1,.1,1.74A16.67,16.67,0,0,1,455.53,229Zm4.1-95.75v68.4a11.27,11.27,0,0,1-3.9,8.51v-5.58a41.46,41.46,0,0,0-7.21-23.42,31.54,31.54,0,0,1-5.47-17.77V153a28.44,28.44,0,0,0-28.38-28.42l-11.51-.09a57.61,57.61,0,0,0,3.26-19.22v-25a24.56,24.56,0,0,0-.66-5.66A58.9,58.9,0,0,1,459.63,133.23ZM294.28,153.81A88.18,88.18,0,0,1,320.53,91a85.73,85.73,0,0,1,60.82-25.47h.35a14.76,14.76,0,0,1,14.72,14.74v25A48.27,48.27,0,0,1,348.1,153.6a49.63,49.63,0,0,0-49.62,49.61v6a13.39,13.39,0,0,1-4.2-9.77Zm-7.22,56.76A23.31,23.31,0,0,0,298.48,221v2.63c0,1.78.07,3.56.19,5.32a16.66,16.66,0,0,1-11.82-15.92A17.05,17.05,0,0,1,287.06,210.57Zm23.85,31.21a68.8,68.8,0,0,1-2.43-18.13V203.21A39.62,39.62,0,0,1,348.1,163.6a58.09,58.09,0,0,0,50.49-29.13l16,.12A18.44,18.44,0,0,1,433.05,153v10.36a41.6,41.6,0,0,0,7.21,23.4,31.53,31.53,0,0,1,5.47,17.79v19.09a68.59,68.59,0,0,1-109.08,55.42,80.89,80.89,0,0,0-19.89-32C314.89,245.19,312.93,243.44,310.91,241.78Zm29.89,71.64v-8.64a83,83,0,0,0-.85-11.84c2,1.08,4.1,2.08,6.21,3V312.2Zm15.36,44.35V326.46l14.4,11.27Zm21.26-27.37-21.26-16.64V299.45a79.1,79.1,0,0,0,42.51-.18v14.49Zm21.25,27.37-14.39-20,14.39-11.27Z"/><path d="M280,343a4.8,4.8,0,0,0,4.8-4.8v-3.29a4.8,4.8,0,0,0-9.6,0v3.29A4.8,4.8,0,0,0,280,343Z"/><rect x="235.51" y="330.06" width="9.6" height="12.89" rx="4.8"/><path d="M282.47,361.16l-9-4.32a15,15,0,0,1-27.09,0l-9,4.3a25,25,0,0,0,45.14,0Z"/><rect x="206.37" y="280.04" width="10" height="25.23" transform="translate(-145.03 235.18) rotate(-45)"/><rect x="217.12" y="269.29" width="10" height="25.23" transform="translate(-134.28 239.63) rotate(-45)"/><path d="M354.41,459.34a55.11,55.11,0,0,0-43.15-54L283.51,399v-7.76c22.76-9.12,39.81-30.82,42.88-57.46a17.8,17.8,0,0,0-6.83-16.09c-5.11-3.91-13.91-12.32-15.39-24.67a12.15,12.15,0,0,0-7.83-10l-.47-.17a12,12,0,0,0-13.67,3.89c-18.37,23.66-53.63,30.65-73,32.71a17.78,17.78,0,0,0-15.5,21.37A71.55,71.55,0,0,0,217,380.12a66.58,66.58,0,0,0,18.43,11.11V399l-27.75,6.29a55.11,55.11,0,0,0-43.15,54v34.29H354.41ZM203.47,338.71a7.77,7.77,0,0,1,6.77-9.33c21-2.22,59.21-9.93,79.86-36.51a2,2,0,0,1,1.59-.78,2.23,2.23,0,0,1,.72.13l.48.18a2.17,2.17,0,0,1,1.35,1.83h0c1.92,16,12.88,26.56,19.25,31.42a7.74,7.74,0,0,1,3,7c-3.49,30.35-28,53.25-57,53.25C232.46,385.91,209.43,366.5,203.47,338.71Zm56,57.2a64,64,0,0,0,14-1.57v6.51a21.47,21.47,0,0,1-28.09,0v-6.51A64.24,64.24,0,0,0,259.47,395.91Zm-20.53,12.57a31.52,31.52,0,0,0,41.05,0l17.61,4v28.8H222.72V412.15Zm-29.06,6.58,2.84-.64v36.85H307.6V414.73l1.45.33a46.65,46.65,0,0,1,9.69,3.37v65.2H201.06V418A46,46,0,0,1,209.88,415.06Zm-35.36,44.28a45.19,45.19,0,0,1,16.54-35.12v59.41H174.52Zm169.89,24.29H328.74V425a45.17,45.17,0,0,1,15.67,34.38Z"/><path d="M142.44,272.23a10,10,0,0,1-9-5.69l-9,4.31a20,20,0,0,0,36.08,0l-9-4.31A10.06,10.06,0,0,1,142.44,272.23Z"/><rect x="56.82" y="370.91" width="112.7" height="10"/><path d="M178.29,222.92a5.54,5.54,0,0,1,5.53,5.53h10a15.53,15.53,0,0,0-31.06,0h10A5.54,5.54,0,0,1,178.29,222.92Z"/><path d="M91.07,228.45h10a5.53,5.53,0,0,1,11.06,0h10a15.53,15.53,0,0,0-31.06,0Z"/><path d="M377.43,267.72a20.48,20.48,0,0,0,18.38-11.59l-9-4.31a10.37,10.37,0,0,1-18.72,0l-9,4.31A20.47,20.47,0,0,0,377.43,267.72Z"/><path d="M413.27,210.05a5.54,5.54,0,0,1,5.53,5.53h10a15.53,15.53,0,0,0-31.06,0h10A5.54,5.54,0,0,1,413.27,210.05Z"/><path d="M341.58,210.05a5.54,5.54,0,0,1,5.53,5.53h10a15.53,15.53,0,0,0-31.06,0h10A5.54,5.54,0,0,1,341.58,210.05Z"/><rect x="372.42" y="369.71" width="10" height="102.62"/></g></svg>