<?xml version="1.0" encoding="UTF-8"?>
<!DOCTYPE svg PUBLIC "-//W3C//DTD SVG 1.1//EN" "http://www.w3.org/Graphics/SVG/1.1/DTD/svg11.dtd">
<!-- Creator: CorelDRAW -->
<svg xmlns="http://www.w3.org/2000/svg" xml:space="preserve" width="1.70666in" height="1.70666in" version="1.1" style="shape-rendering:geometricPrecision; text-rendering:geometricPrecision; image-rendering:optimizeQuality; fill-rule:evenodd; clip-rule:evenodd"
viewBox="0 0 1707 1707"
 xmlns:xlink="http://www.w3.org/1999/xlink">
 <defs>
  <style type="text/css">
   <![CDATA[
    .fil0 {fill:black}
   ]]>
  </style>
 </defs>
 <g id="Layer_x0020_1">
  <metadata id="CorelCorpID_0Corel-Layer"/>
  <g id="_610397576">
   <g>
    <path class="fil0" d="M510 441c0,0 0,0 0,0 -15,-1 -25,-12 -24,-25 9,-159 117,-294 271,-335 12,-5 26,4 29,16 4,13 -4,27 -17,29 -133,36 -227,153 -234,292 -2,14 -11,23 -25,23zm684 0c-13,0 -24,-9 -24,-23 -7,-139 -101,-256 -234,-292 -13,-4 -21,-16 -17,-29 4,-12 17,-21 29,-16 154,41 264,176 271,335 0,13 -10,24 -25,25 1,0 1,0 0,0z"/>
   </g>
   <g>
    <path class="fil0" d="M786 439c-13,0 -24,-10 -24,-23l-29 -390c0,-6 2,-13 7,-18 4,-5 11,-8 18,-8l190 0c7,0 13,3 18,8 6,6 7,12 7,18l-28 390c-1,14 -12,24 -26,23 -14,-2 -23,-13 -22,-27l26 -365 -138 0 26 365c1,14 -10,25 -22,27 -2,0 -3,0 -3,0z"/>
   </g>
   <g>
    <path class="fil0" d="M1180 551l-655 0c-43,0 -80,-36 -80,-81 0,-44 36,-80 80,-80l655 0c44,0 80,36 80,80 0,45 -37,81 -80,81zm-655 -112c-17,0 -32,13 -32,31 0,17 15,32 32,32l655 0c17,0 32,-14 32,-32 0,-18 -14,-31 -32,-31l-655 0z"/>
   </g>
   <g>
    <path class="fil0" d="M853 889c-85,0 -164,-34 -225,-97 -67,-69 -103,-166 -99,-266 0,-14 11,-24 25,-24 14,0 24,11 24,25 -3,88 28,171 86,231 51,52 119,83 190,83 71,0 137,-29 189,-82 56,-61 87,-144 84,-232 0,-14 10,-25 24,-25 14,0 25,10 25,24 4,100 -32,197 -99,266 -61,63 -140,97 -224,97z"/>
   </g>
   <g>
    <path class="fil0" d="M1424 1707l-1143 0c-7,0 -13,-3 -17,-7 -4,-5 -7,-12 -7,-17 0,-26 0,-56 -1,-86 -3,-118 -6,-251 35,-350 58,-145 205,-302 388,-302 14,0 25,11 25,25 0,14 -11,25 -25,25 -153,0 -288,136 -343,272 -36,89 -33,216 -30,330 0,22 1,43 1,64l1095 0c0,-18 0,-36 1,-56 3,-115 6,-245 -30,-335 -54,-136 -189,-274 -344,-274 -14,0 -25,-11 -25,-25 0,-14 11,-25 25,-25 184,0 331,158 388,304 40,99 36,235 33,354 0,28 -1,54 -1,79 -1,12 -11,24 -25,24z"/>
   </g>
   <g>
    <path class="fil0" d="M1026 993c-14,0 -25,-11 -25,-25l0 -163c0,-14 11,-25 25,-25 14,0 25,11 25,25l0 165c0,12 -11,23 -25,23zm-348 0c-14,0 -25,-11 -25,-25l0 -163c0,-14 11,-25 25,-25 14,0 25,11 25,25l0 165c0,12 -11,23 -25,23z"/>
   </g>
   <g>
    <path class="fil0" d="M850 1136c-10,0 -18,-2 -25,-8l-163 -140c-9,-8 -11,-24 -2,-35 8,-9 23,-11 34,-3l156 135 161 -135c9,-8 25,-6 34,3 9,10 7,25 -2,35l-167 140c0,0 -1,1 -3,1 -7,5 -15,7 -23,7z"/>
   </g>
   <g>
    <path class="fil0" d="M1033 1386l-361 0c-65,0 -118,-60 -118,-135l0 -264c0,-14 11,-25 25,-25 14,0 25,11 25,25l0 264c0,46 32,87 70,87l360 0c38,0 70,-39 70,-87l0 -264c0,-14 11,-25 25,-25 13,0 25,11 25,25l0 264c-3,74 -56,135 -121,135z"/>
   </g>
   <g>
    <path class="fil0" d="M1321 1693c-13,0 -25,-11 -25,-25l0 -121 -40 -44c-4,-5 -5,-10 -5,-17l0 -404c0,-14 11,-25 25,-25 14,0 25,11 25,25l0 397 40 44c4,5 5,10 5,17l0 130c-1,13 -12,23 -25,23z"/>
   </g>
   <g>
    <path class="fil0" d="M384 1707c-14,0 -25,-12 -25,-25l0 -143c0,-6 2,-13 7,-17l40 -44 0 -397c0,-14 11,-25 25,-25 14,0 25,11 25,25l0 406c0,6 -3,13 -7,17l-40 44 0 134c-2,13 -13,25 -25,25z"/>
   </g>
  </g>
 </g>
</svg>
