<?xml version="1.0" encoding="UTF-8"?>
<!DOCTYPE svg PUBLIC "-//W3C//DTD SVG 1.1//EN" "http://www.w3.org/Graphics/SVG/1.1/DTD/svg11.dtd">
<!-- Creator: CorelDRAW -->
<svg xmlns="http://www.w3.org/2000/svg" xml:space="preserve" width="7.11111in" height="7.11111in" version="1.1" style="shape-rendering:geometricPrecision; text-rendering:geometricPrecision; image-rendering:optimizeQuality; fill-rule:evenodd; clip-rule:evenodd"
viewBox="0 0 7111 7111"
 xmlns:xlink="http://www.w3.org/1999/xlink">
 <defs>
  <style type="text/css">
   <![CDATA[
    .fil0 {fill:black}
   ]]>
  </style>
 </defs>
 <g id="Layer_x0020_1">
  <metadata id="CorelCorpID_0Corel-Layer"/>
  <g id="_745113904">
   <g>
    <g>
     <g>
      <path class="fil0" d="M4152 7108c-301,0 -544,-243 -544,-544l0 -1568c0,-104 -35,-144 -47,-150 -11,6 -46,46 -46,150l0 1574c0,301 -243,544 -544,544 -301,0 -538,-249 -538,-544l0 -1701c-87,93 -208,145 -341,145 -261,0 -469,-209 -469,-469l0 -1591c0,-6 0,-6 0,-12 41,-422 399,-752 816,-752l2233 0c423,0 781,330 816,752 0,6 0,6 0,12l0 1597c0,260 -208,468 -469,468 -127,0 -248,-52 -329,-138l0 1689c0,295 -243,538 -538,538zm-591 -2465c122,0 249,110 249,353l0 1574c0,185 156,341 342,341 185,0 341,-156 341,-341l0 -3321c0,-122 69,-174 133,-174 64,0 133,58 133,174l0 1302c0,144 122,266 266,266 145,0 266,-122 266,-266l0 -1591c-29,-313 -300,-562 -613,-562l-2239 0c-313,0 -585,249 -613,562l0 1591c0,144 121,266 266,266 144,0 266,-122 266,-266l0 -1302c0,-220 278,-220 278,0l0 3321c0,185 150,341 341,341 185,0 341,-156 341,-341l0 -1574c-5,-243 122,-353 243,-353z"/>
     </g>
     <g>
      <path class="fil0" d="M2092 7108c-58,0 -104,-46 -104,-104l0 -2089c0,-58 46,-104 104,-104 58,0 104,46 104,104l0 2095c-6,58 -46,98 -104,98z"/>
     </g>
     <g>
      <path class="fil0" d="M3556 1982c-533,0 -967,-446 -967,-995 0,-544 434,-990 967,-990 532,0 966,446 966,990 6,549 -428,995 -966,995zm0 -1782c-423,0 -764,353 -764,787 0,433 341,792 764,792 422,0 769,-359 769,-792 0,-434 -347,-787 -769,-787z"/>
     </g>
    </g>
    <g>
     <path class="fil0" d="M3376 5679c-549,0 -879,-179 -897,-185 -46,-29 -69,-87 -40,-139 29,-46 87,-69 139,-40 5,0 318,173 833,162 58,0 104,46 104,98 0,58 -46,104 -98,104 -12,0 -23,0 -41,0z"/>
    </g>
    <g>
     <path class="fil0" d="M2618 6194c-11,0 -29,0 -40,0 -58,0 -99,-52 -99,-104 0,-58 52,-99 104,-99 313,18 782,-202 787,-202 52,-23 110,0 133,46 24,52 0,110 -46,133 -17,12 -480,226 -839,226z"/>
    </g>
    <g>
     <path class="fil0" d="M3203 6593c-336,0 -660,-98 -677,-104 -52,-17 -81,-75 -70,-127 18,-52 75,-81 127,-70 6,0 440,133 787,87 58,-6 105,29 116,87 12,58 -29,104 -87,116 -63,5 -127,11 -196,11z"/>
    </g>
   </g>
  </g>
 </g>
</svg>
