<?xml version="1.0" encoding="UTF-8"?>
<!DOCTYPE svg PUBLIC "-//W3C//DTD SVG 1.1//EN" "http://www.w3.org/Graphics/SVG/1.1/DTD/svg11.dtd">
<!-- Creator: CorelDRAW -->
<svg xmlns="http://www.w3.org/2000/svg" xml:space="preserve" width="7.11111in" height="7.11111in" version="1.1" style="shape-rendering:geometricPrecision; text-rendering:geometricPrecision; image-rendering:optimizeQuality; fill-rule:evenodd; clip-rule:evenodd"
viewBox="0 0 7111 7111"
 xmlns:xlink="http://www.w3.org/1999/xlink">
 <defs>
  <style type="text/css">
   <![CDATA[
    .fil0 {fill:black}
   ]]>
  </style>
 </defs>
 <g id="Layer_x0020_1">
  <metadata id="CorelCorpID_0Corel-Layer"/>
  <g id="_514631896">
   <g>
    <g>
     <g>
      <path class="fil0" d="M5413 7111l-4930 0c-202,0 -364,-162 -364,-364l0 -6382c0,-203 162,-365 364,-365l3831 0c28,0 52,12 69,29l1360 1360c17,17 29,46 29,69l0 521c0,58 -47,104 -105,104 -57,0 -104,-46 -104,-104l0 -475 -1290 -1301 -3790 0c-92,0 -162,69 -162,162l0 6387c0,93 70,162 162,162l4930 0c87,0 162,-75 162,-162l0 -2331c0,-58 46,-105 104,-105 58,0 104,47 104,105l0 2326c-11,202 -173,364 -370,364z"/>
     </g>
     <g>
      <path class="fil0" d="M5673 1562l-1059 0c-219,0 -399,-179 -399,-405l0 -1053c0,-40 23,-75 64,-92 40,-18 81,-6 110,23l1354 1354c29,29 40,75 23,110 -18,40 -52,63 -93,63zm-1255 -1215l0 810c0,110 86,203 196,203l816 0 -1012 -1013z"/>
     </g>
     <g>
      <path class="fil0" d="M3457 2789l-2442 0c-57,0 -104,-46 -104,-104 0,-58 47,-104 104,-104l2442 0c58,0 104,46 104,104 0,58 -46,104 -104,104z"/>
     </g>
     <g>
      <path class="fil0" d="M4562 2789l-509 0c-58,0 -104,-46 -104,-104 0,-58 46,-104 104,-104l509 0c58,0 104,46 104,104 0,58 -46,104 -104,104z"/>
     </g>
     <g>
      <path class="fil0" d="M3457 1909l-2442 0c-57,0 -104,-46 -104,-104 0,-58 47,-104 104,-104l2442 0c58,0 104,46 104,104 0,58 -46,104 -104,104z"/>
     </g>
     <g>
      <path class="fil0" d="M3457 1036l-2442 0c-57,0 -104,-47 -104,-104 0,-58 47,-99 104,-99l2442 0c58,0 104,46 104,99 0,52 -46,104 -104,104z"/>
     </g>
     <g>
      <path class="fil0" d="M3457 3657l-2442 0c-57,0 -104,-46 -104,-104 0,-58 47,-104 104,-104l2442 0c58,0 104,46 104,104 0,58 -46,104 -104,104z"/>
     </g>
     <g>
      <path class="fil0" d="M4504 3657l-445 0c-58,0 -104,-46 -104,-104 0,-58 46,-104 104,-104l445 0c58,0 105,46 105,104 0,58 -52,104 -105,104z"/>
     </g>
     <g>
      <path class="fil0" d="M4562 6237l-3315 0c-185,0 -336,-150 -336,-335l0 -1227c0,-185 151,-341 336,-341l3310 0c185,0 335,150 335,341l0 1227c6,185 -145,335 -330,335zm-3315 -1695c-70,0 -133,64 -133,139l0 1227c0,75 58,133 133,133l3310 0c75,0 133,-58 133,-133l0 -1233c0,-75 -58,-139 -133,-139l-3310 0 0 6z"/>
     </g>
     <g>
      <g>
       <path class="fil0" d="M2242 5937c-11,0 -23,0 -35,-6 -52,-18 -81,-81 -57,-133 40,-104 75,-203 109,-295 238,-631 319,-845 487,-851 0,0 0,0 0,0 156,0 237,197 451,729 46,122 104,255 168,411 23,52 -6,110 -58,133 -52,23 -110,-6 -133,-58 -64,-150 -116,-289 -168,-411 -104,-260 -203,-509 -260,-584 -64,81 -174,370 -296,700 -34,93 -69,191 -110,295 -23,46 -57,70 -98,70z"/>
      </g>
      <g>
       <path class="fil0" d="M2323 4843l-868 0c-58,0 -104,-46 -104,-104 0,-58 46,-104 104,-104l868 0c58,0 104,46 104,104 0,58 -46,104 -104,104z"/>
      </g>
      <g>
       <path class="fil0" d="M1889 5937c-58,0 -104,-47 -104,-105l0 -1087c0,-58 46,-105 104,-105 58,0 104,47 104,105l0 1093c0,58 -46,99 -104,99z"/>
      </g>
      <g>
       <g>
        <path class="fil0" d="M3544 5937c-23,0 -41,-6 -58,-18 -46,-35 -52,-98 -23,-139l810 -1093c35,-47 98,-52 139,-23 46,34 52,98 23,138l-810 1094c-17,29 -52,41 -81,41z"/>
       </g>
       <g>
        <path class="fil0" d="M4354 5937c-29,0 -64,-12 -81,-41l-810 -1094c-35,-46 -23,-109 23,-138 46,-35 110,-24 139,23l810 1093c35,47 23,110 -23,139 -17,12 -41,18 -58,18z"/>
       </g>
      </g>
      <g>
       <path class="fil0" d="M3041 5387l-591 0c-57,0 -104,-46 -104,-104 0,-58 47,-104 104,-104l591 0c57,0 104,46 104,104 0,58 -47,104 -104,104z"/>
      </g>
     </g>
    </g>
    <g>
     <path class="fil0" d="M5673 4525c-729,0 -1319,-590 -1319,-1320 0,-729 590,-1325 1319,-1325 729,0 1319,591 1319,1320 0,729 -590,1325 -1319,1325zm0 -2442c-619,0 -1116,503 -1116,1117 0,613 497,1122 1116,1122 619,0 1117,-503 1117,-1117 0,-613 -498,-1122 -1117,-1122z"/>
    </g>
    <g>
     <g>
      <g>
       <path class="fil0" d="M5343 2962c-167,0 -306,-138 -306,-312 0,-174 133,-307 306,-307 174,0 313,139 313,307 0,174 -139,312 -313,312zm0 -416c-63,0 -104,46 -104,104 0,64 47,110 104,110 58,0 110,-52 110,-110 0,-58 -46,-104 -110,-104z"/>
      </g>
      <g>
       <path class="fil0" d="M6003 4062c-174,0 -312,-139 -312,-313 0,-167 138,-306 312,-306 174,0 307,139 307,306 0,168 -139,313 -307,313zm0 -423c-64,0 -110,47 -110,105 0,57 52,110 110,110 58,0 104,-53 104,-110 0,-58 -46,-105 -104,-105z"/>
      </g>
     </g>
     <g>
      <path class="fil0" d="M5297 3946c-17,0 -35,-6 -52,-11 -46,-29 -64,-93 -35,-139l747 -1291c29,-46 92,-63 139,-34 46,29 63,92 34,139l-746 1290c-17,29 -52,46 -87,46z"/>
     </g>
    </g>
   </g>
  </g>
 </g>
</svg>
